<svg id="Lager_1" data-name="Lager 1" xmlns="http://www.w3.org/2000/svg" xmlns:xlink="http://www.w3.org/1999/xlink" viewBox="0 0 1950.14 1112.29"><defs><style>.cls-1{fill:url(#Namnlös_övertoning);}.cls-2{opacity:0.85;fill:url(#Namnlös_övertoning_2);}.cls-10,.cls-11,.cls-12,.cls-13,.cls-14,.cls-15,.cls-16,.cls-17,.cls-18,.cls-19,.cls-2,.cls-20,.cls-21,.cls-22,.cls-23,.cls-24,.cls-25,.cls-26,.cls-27,.cls-28,.cls-29,.cls-3,.cls-30,.cls-31,.cls-32,.cls-33,.cls-34,.cls-35,.cls-36,.cls-37,.cls-38,.cls-39,.cls-4,.cls-40,.cls-41,.cls-44,.cls-45,.cls-46,.cls-47,.cls-48,.cls-5,.cls-53,.cls-54,.cls-55,.cls-56,.cls-57,.cls-58,.cls-59,.cls-6,.cls-60,.cls-61,.cls-62,.cls-63,.cls-68,.cls-69,.cls-7,.cls-73,.cls-8,.cls-9{isolation:isolate;}.cls-10,.cls-11,.cls-12,.cls-13,.cls-14,.cls-15,.cls-16,.cls-17,.cls-18,.cls-19,.cls-20,.cls-21,.cls-22,.cls-23,.cls-24,.cls-25,.cls-26,.cls-27,.cls-28,.cls-29,.cls-3,.cls-30,.cls-31,.cls-32,.cls-33,.cls-34,.cls-35,.cls-36,.cls-37,.cls-38,.cls-39,.cls-4,.cls-40,.cls-41,.cls-5,.cls-6,.cls-62,.cls-63,.cls-7,.cls-8,.cls-9{opacity:0.51;}.cls-3{fill:url(#Namnlös_övertoning_3);}.cls-4{fill:url(#Namnlös_övertoning_4);}.cls-5{fill:url(#Namnlös_övertoning_5);}.cls-6{fill:url(#Namnlös_övertoning_6);}.cls-7{fill:url(#Namnlös_övertoning_7);}.cls-8{fill:url(#Namnlös_övertoning_8);}.cls-9{fill:url(#Namnlös_övertoning_9);}.cls-10{fill:url(#Namnlös_övertoning_10);}.cls-11{fill:url(#Namnlös_övertoning_11);}.cls-12{fill:url(#Namnlös_övertoning_12);}.cls-13{fill:url(#Namnlös_övertoning_13);}.cls-14{fill:url(#Namnlös_övertoning_14);}.cls-15{fill:url(#Namnlös_övertoning_15);}.cls-16{fill:url(#Namnlös_övertoning_16);}.cls-17{fill:url(#Namnlös_övertoning_17);}.cls-18{fill:url(#Namnlös_övertoning_18);}.cls-19{fill:url(#Namnlös_övertoning_19);}.cls-20{fill:url(#Namnlös_övertoning_20);}.cls-21{fill:url(#Namnlös_övertoning_21);}.cls-22{fill:url(#Namnlös_övertoning_22);}.cls-23{fill:url(#Namnlös_övertoning_23);}.cls-24{fill:url(#Namnlös_övertoning_24);}.cls-25{fill:url(#Namnlös_övertoning_25);}.cls-26{fill:url(#Namnlös_övertoning_26);}.cls-27{fill:url(#Namnlös_övertoning_27);}.cls-28{fill:url(#Namnlös_övertoning_28);}.cls-29{fill:url(#Namnlös_övertoning_29);}.cls-30{fill:url(#Namnlös_övertoning_30);}.cls-31{fill:url(#Namnlös_övertoning_31);}.cls-32{fill:url(#Namnlös_övertoning_32);}.cls-33{fill:url(#Namnlös_övertoning_33);}.cls-34{fill:url(#Namnlös_övertoning_34);}.cls-35{fill:url(#Namnlös_övertoning_35);}.cls-36{fill:url(#Namnlös_övertoning_36);}.cls-37{fill:url(#Namnlös_övertoning_37);}.cls-38{fill:url(#Namnlös_övertoning_38);}.cls-39{fill:url(#Namnlös_övertoning_39);}.cls-40{fill:url(#Namnlös_övertoning_40);}.cls-41{fill:url(#Namnlös_övertoning_41);}.cls-42{fill:#8e7e39;}.cls-43{fill:#726137;}.cls-44{fill:#bcb8b5;}.cls-44,.cls-45,.cls-46,.cls-47,.cls-48,.cls-53,.cls-57,.cls-58,.cls-59,.cls-60,.cls-61,.cls-69,.cls-73{opacity:0.5;}.cls-45{fill:#8da0c6;}.cls-46{fill:#6b4c3a;}.cls-47{fill:#a57053;}.cls-48{fill:#9b562f;}.cls-49{fill:#848180;}.cls-50{fill:#efefef;}.cls-51,.cls-53{fill:#7c602f;}.cls-52{fill:#e8b754;}.cls-55,.cls-56{font-size:27.89px;font-family:ArialMT, Arial;}.cls-55{letter-spacing:0.01em;}.cls-57{fill:#e2c85a;}.cls-58{fill:#aa9744;}.cls-59{fill:#897a3a;}.cls-60{fill:#685d2d;}.cls-61{fill:#d31e3c;}.cls-62{fill:url(#Namnlös_övertoning_42);}.cls-63{fill:url(#Namnlös_övertoning_43);}.cls-64{fill:#423a1b;}.cls-65{fill:#84723a;}.cls-66{fill:#d6b863;}.cls-67{fill:#b59955;}.cls-68,.cls-69{fill:#a31c3a;}.cls-68{opacity:0.75;}.cls-70{fill:#561123;}.cls-71{fill:#afa68c;}.cls-72{fill:#ccb450;}.cls-73{fill:url(#Namnlös_övertoning_44);}.cls-74{fill:#474647;}.cls-75{fill:#7f7238;}.cls-76{fill:#473f20;}.cls-77{fill:#5b502b;}.cls-78{fill:#fc4766;}.cls-79{fill:#c69134;}.cls-80{fill:#604e42;}.cls-81{fill:url(#Namnlös_övertoning_45);}.cls-82{fill:url(#Namnlös_övertoning_46);}.cls-83{fill:#ffe70b;}</style><linearGradient id="Namnlös_övertoning" x1="1340.08" y1="98.18" x2="579.92" y2="1414.82" gradientTransform="matrix(1, 0, 0, -1, 0, 1080)" gradientUnits="userSpaceOnUse"><stop offset="0" stop-color="#935e00"/><stop offset="0" stop-color="#955f01"/><stop offset="0" stop-color="#af7b28"/><stop offset="0" stop-color="#e0b073"/><stop offset="0" stop-color="#f4c590"/><stop offset="0" stop-color="#eebe86"/><stop offset="0" stop-color="#e3b275"/><stop offset="0" stop-color="#dbaa6a"/><stop offset="0" stop-color="#d6a563"/><stop offset="0" stop-color="#d5a461"/><stop offset="0" stop-color="#dbab6b"/><stop offset="0" stop-color="#f1c28c"/><stop offset="0" stop-color="#f9cb98"/><stop offset="0" stop-color="#f9cb96"/><stop offset="0.25" stop-color="#f9ce97"/><stop offset="0.4" stop-color="#f9d59b"/><stop offset="0.56" stop-color="#f9d599"/><stop offset="0.63" stop-color="#fad392"/><stop offset="0.67" stop-color="#fcd086"/><stop offset="0.71" stop-color="#fecc75"/><stop offset="0.73" stop-color="#ffca6c"/><stop offset="0.81" stop-color="#ffc96a"/><stop offset="0.85" stop-color="#ffc463"/><stop offset="0.88" stop-color="#ffbb57"/><stop offset="0.9" stop-color="#ffae45"/><stop offset="0.92" stop-color="#ff9f2e"/><stop offset="0.93" stop-color="#ff931e"/></linearGradient><linearGradient id="Namnlös_övertoning_2" y1="216.5" x2="1920" y2="216.5" gradientTransform="matrix(1, 0, 0, -1, 0, 1080)" gradientUnits="userSpaceOnUse"><stop offset="0" stop-color="#935e00"/><stop offset="0.22" stop-color="#976001"/><stop offset="0.24" stop-color="#996102"/><stop offset="0.39" stop-color="#a36605"/><stop offset="0.43" stop-color="#b8700b"/><stop offset="0.51" stop-color="#d27d12"/><stop offset="0.59" stop-color="#e68717"/><stop offset="0.69" stop-color="#f48e1b"/><stop offset="0.8" stop-color="#fd921d"/><stop offset="1" stop-color="#ff931e"/></linearGradient><linearGradient id="Namnlös_övertoning_3" x1="108" y1="741.5" x2="418" y2="741.5" gradientTransform="matrix(1, 0, 0, -1, 0, 1080)" gradientUnits="userSpaceOnUse"><stop offset="0" stop-color="#935e00"/><stop offset="0.02" stop-color="#986101"/><stop offset="0.12" stop-color="#b8700a"/><stop offset="0.24" stop-color="#d27d11"/><stop offset="0.37" stop-color="#e68717"/><stop offset="0.52" stop-color="#f48e1b"/><stop offset="0.7" stop-color="#fd921d"/><stop offset="1" stop-color="#ff931e"/></linearGradient><linearGradient id="Namnlös_övertoning_4" x1="107" y1="750.5" x2="417" y2="750.5" xlink:href="#Namnlös_övertoning_3"/><linearGradient id="Namnlös_övertoning_5" x1="107" y1="759.5" x2="417" y2="759.5" xlink:href="#Namnlös_övertoning_3"/><linearGradient id="Namnlös_övertoning_6" x1="194" y1="774.5" x2="325" y2="774.5" xlink:href="#Namnlös_övertoning_3"/><linearGradient id="Namnlös_övertoning_7" x1="202" y1="785.5" x2="319" y2="785.5" xlink:href="#Namnlös_övertoning_3"/><linearGradient id="Namnlös_övertoning_8" x1="217" y1="796.5" x2="305" y2="796.5" xlink:href="#Namnlös_övertoning_3"/><linearGradient id="Namnlös_övertoning_9" y1="728.5" y2="728.5" xlink:href="#Namnlös_övertoning_3"/><linearGradient id="Namnlös_övertoning_10" y1="715.5" y2="715.5" xlink:href="#Namnlös_övertoning_3"/><linearGradient id="Namnlös_övertoning_11" y1="702.5" y2="702.5" xlink:href="#Namnlös_övertoning_3"/><linearGradient id="Namnlös_övertoning_12" y1="693.5" y2="693.5" xlink:href="#Namnlös_övertoning_3"/><linearGradient id="Namnlös_övertoning_13" y1="681.5" y2="681.5" xlink:href="#Namnlös_övertoning_3"/><linearGradient id="Namnlös_övertoning_14" y1="669.5" y2="669.5" xlink:href="#Namnlös_övertoning_3"/><linearGradient id="Namnlös_övertoning_15" y1="661.5" y2="661.5" xlink:href="#Namnlös_övertoning_3"/><linearGradient id="Namnlös_övertoning_16" y1="650.5" y2="650.5" xlink:href="#Namnlös_övertoning_3"/><linearGradient id="Namnlös_övertoning_17" y1="637.5" y2="637.5" xlink:href="#Namnlös_övertoning_3"/><linearGradient id="Namnlös_övertoning_18" y1="612.5" y2="612.5" xlink:href="#Namnlös_övertoning_3"/><linearGradient id="Namnlös_övertoning_19" y1="598.5" y2="598.5" xlink:href="#Namnlös_övertoning_3"/><linearGradient id="Namnlös_övertoning_20" y1="573.5" y2="573.5" xlink:href="#Namnlös_övertoning_3"/><linearGradient id="Namnlös_övertoning_21" y1="587.5" y2="587.5" xlink:href="#Namnlös_övertoning_3"/><linearGradient id="Namnlös_övertoning_22" y1="558.5" y2="558.5" xlink:href="#Namnlös_övertoning_3"/><linearGradient id="Namnlös_övertoning_23" y1="550.5" y2="550.5" xlink:href="#Namnlös_övertoning_3"/><linearGradient id="Namnlös_övertoning_24" y1="534.5" y2="534.5" xlink:href="#Namnlös_övertoning_3"/><linearGradient id="Namnlös_övertoning_25" y1="526.5" y2="526.5" xlink:href="#Namnlös_övertoning_3"/><linearGradient id="Namnlös_övertoning_26" x1="372" y1="514.5" y2="514.5" xlink:href="#Namnlös_övertoning_3"/><linearGradient id="Namnlös_övertoning_27" x1="372" y1="506.5" y2="506.5" xlink:href="#Namnlös_övertoning_3"/><linearGradient id="Namnlös_övertoning_28" x1="372" y1="494.5" y2="494.5" xlink:href="#Namnlös_övertoning_3"/><linearGradient id="Namnlös_övertoning_29" x1="372" y1="479.5" y2="479.5" xlink:href="#Namnlös_övertoning_3"/><linearGradient id="Namnlös_övertoning_30" x1="372" y1="466.5" y2="466.5" xlink:href="#Namnlös_övertoning_3"/><linearGradient id="Namnlös_övertoning_31" x1="372" y1="459.5" y2="459.5" xlink:href="#Namnlös_övertoning_3"/><linearGradient id="Namnlös_övertoning_32" x1="372" y1="449.5" y2="449.5" xlink:href="#Namnlös_övertoning_3"/><linearGradient id="Namnlös_övertoning_33" y1="516.5" x2="148" y2="516.5" xlink:href="#Namnlös_övertoning_3"/><linearGradient id="Namnlös_övertoning_34" y1="508.5" x2="148" y2="508.5" xlink:href="#Namnlös_övertoning_3"/><linearGradient id="Namnlös_övertoning_35" y1="496.5" x2="148" y2="496.5" xlink:href="#Namnlös_övertoning_3"/><linearGradient id="Namnlös_övertoning_36" y1="481.5" x2="148" y2="481.5" xlink:href="#Namnlös_övertoning_3"/><linearGradient id="Namnlös_övertoning_37" y1="468.5" x2="148" y2="468.5" xlink:href="#Namnlös_övertoning_3"/><linearGradient id="Namnlös_övertoning_38" y1="461.5" x2="148" y2="461.5" xlink:href="#Namnlös_övertoning_3"/><linearGradient id="Namnlös_övertoning_39" y1="451.5" x2="148" y2="451.5" xlink:href="#Namnlös_övertoning_3"/><linearGradient id="Namnlös_övertoning_40" y1="624.5" y2="624.5" xlink:href="#Namnlös_övertoning_3"/><linearGradient id="Namnlös_övertoning_41" y1="623.44" y2="623.44" xlink:href="#Namnlös_övertoning_3"/><linearGradient id="Namnlös_övertoning_42" x1="108.09" y1="437.52" x2="418.44" y2="437.52" xlink:href="#Namnlös_övertoning_3"/><linearGradient id="Namnlös_övertoning_43" x1="98.24" y1="424.58" x2="422.88" y2="424.58" xlink:href="#Namnlös_övertoning_3"/><linearGradient id="Namnlös_övertoning_44" x1="1361" y1="430" x2="1628" y2="697" gradientTransform="matrix(1, 0, 0, -1, 0, 1080)" gradientUnits="userSpaceOnUse"><stop offset="0.32"/><stop offset="0.63" stop-color="#f6f6f6"/><stop offset="1" stop-color="#fff"/></linearGradient><linearGradient id="Namnlös_övertoning_45" x1="1689.2" y1="274.01" x2="1914.2" y2="274.01" xlink:href="#Namnlös_övertoning_2"/><linearGradient id="Namnlös_övertoning_46" x1="1655.35" y1="134.04" x2="1946.49" y2="134.04" gradientTransform="matrix(1, 0, 0, -1, 0, 1080)" gradientUnits="userSpaceOnUse"><stop offset="0.26" stop-color="#935e00"/><stop offset="0.28" stop-color="#996102"/><stop offset="0.32" stop-color="#a36605"/><stop offset="0.37" stop-color="#b8700b"/><stop offset="0.45" stop-color="#d27d12"/><stop offset="0.55" stop-color="#e68717"/><stop offset="0.65" stop-color="#f48e1b"/><stop offset="0.78" stop-color="#fd921d"/><stop offset="1" stop-color="#ff931e"/></linearGradient></defs><title>backGround</title><g id="himmel"><rect class="cls-1" width="1920" height="647"/></g><g id="sand"><rect class="cls-2" y="647" width="1920" height="433"/></g><g id="Lager_3" data-name="Lager 3"><rect class="cls-3" x="108" y="337" width="310" height="3"/><rect class="cls-4" x="107" y="328" width="310" height="3"/><rect class="cls-5" x="107" y="319" width="310" height="3"/><rect class="cls-6" x="194" y="304" width="131" height="3"/><rect class="cls-7" x="202" y="293" width="117" height="3"/><rect class="cls-8" x="217" y="282" width="88" height="3"/><rect class="cls-9" x="108" y="350" width="310" height="3"/><rect class="cls-10" x="108" y="363" width="310" height="3"/><rect class="cls-11" x="108" y="376" width="310" height="3"/><rect class="cls-12" x="108" y="385" width="310" height="3"/><rect class="cls-13" x="108" y="397" width="310" height="3"/><rect class="cls-14" x="108" y="409" width="310" height="3"/><rect class="cls-15" x="108" y="417" width="310" height="3"/><rect class="cls-16" x="108" y="428" width="310" height="3"/><rect class="cls-17" x="108" y="441" width="310" height="3"/><rect class="cls-18" x="108" y="466" width="310" height="3"/><rect class="cls-19" x="108" y="480" width="310" height="3"/><rect class="cls-20" x="108" y="505" width="310" height="3"/><rect class="cls-21" x="108" y="491" width="310" height="3"/><rect class="cls-22" x="108" y="520" width="310" height="3"/><rect class="cls-23" x="108" y="528" width="310" height="3"/><rect class="cls-24" x="108" y="544" width="310" height="3"/><rect class="cls-25" x="108" y="552" width="310" height="3"/><rect class="cls-26" x="372" y="564" width="46" height="3"/><rect class="cls-27" x="372" y="572" width="46" height="3"/><rect class="cls-28" x="372" y="584" width="46" height="3"/><rect class="cls-29" x="372" y="599" width="46" height="3"/><rect class="cls-30" x="372" y="612" width="46" height="3"/><rect class="cls-31" x="372" y="619" width="46" height="3"/><rect class="cls-32" x="372" y="629" width="46" height="3"/><rect class="cls-33" x="108" y="562" width="40" height="3"/><rect class="cls-34" x="108" y="570" width="40" height="3"/><rect class="cls-35" x="108" y="582" width="40" height="3"/><rect class="cls-36" x="108" y="597" width="40" height="3"/><rect class="cls-37" x="108" y="610" width="40" height="3"/><rect class="cls-38" x="108" y="617" width="40" height="3"/><rect class="cls-39" x="108" y="627" width="40" height="3"/><rect class="cls-40" x="108" y="454" width="310" height="3"/><path class="cls-41" d="M418,641H108V310h84c15-51,127-50,134.81,0H418Z"/><rect class="cls-42" x="1128" y="354" width="189" height="47"/><path class="cls-43" d="M956,276H861v-4c2-41,95-41,95,0Z"/><rect class="cls-44" x="437" y="252" width="292" height="396"/><rect class="cls-45" x="477" y="198" width="217" height="54"/><rect class="cls-46" x="483" y="426" width="198" height="41"/><rect class="cls-47" x="442" y="467" width="283" height="67"/><rect class="cls-48" x="551" y="534" width="66" height="107"/><rect class="cls-49" x="485" y="295" width="37" height="63"/><rect class="cls-50" x="501" y="295" width="6" height="63"/><rect class="cls-50" x="485" y="326" width="37" height="6"/><rect class="cls-51" x="335" y="432" width="37" height="47"/><rect class="cls-52" x="351" y="432" width="6" height="47"/><rect class="cls-52" x="335" y="453" width="37" height="6"/><rect class="cls-51" x="244" y="433" width="37" height="47"/><rect class="cls-53" x="148" y="559" width="224" height="82"/><rect class="cls-52" x="260" y="433" width="6" height="47"/><rect class="cls-52" x="244" y="454" width="37" height="6"/><rect class="cls-51" x="154" y="434" width="37" height="47"/><rect class="cls-52" x="170" y="434" width="6" height="47"/><rect class="cls-52" x="154" y="455" width="37" height="6"/><rect class="cls-49" x="477" y="534" width="61" height="61"/><rect class="cls-50" x="477" y="559.41" width="61" height="11.19"/><rect class="cls-50" x="501.9" y="534" width="11.19" height="61.5"/><rect class="cls-49" x="623" y="534" width="61" height="61"/><rect class="cls-50" x="623" y="559.41" width="61" height="11.19"/><rect class="cls-50" x="647.9" y="534" width="11.19" height="61.5"/><rect class="cls-49" x="567" y="295" width="37" height="63"/><rect class="cls-50" x="583" y="295" width="6" height="63"/><rect class="cls-50" x="567" y="323.5" width="37" height="6"/><rect class="cls-49" x="652" y="295" width="37" height="63"/><rect class="cls-50" x="668" y="295" width="6" height="63"/><rect class="cls-50" x="652" y="323.5" width="37" height="6"/><g class="cls-54"><text class="cls-55" transform="translate(522.36 231.03) scale(1.99 1)">S</text><text class="cls-56" transform="translate(550.06 231.03) scale(1.99 1)">c</text><text class="cls-56" transform="translate(574.94 231.03) scale(1.99 1)">r</text><text class="cls-56" transform="translate(593.3 231.03) scale(1.99 1)">ipt</text></g><rect class="cls-57" x="758" y="276" width="299" height="217"/><rect class="cls-58" x="761" y="493" width="299" height="155"/><rect class="cls-58" x="761" y="647.96" width="299" height="5.04"/><rect class="cls-59" x="757" y="652.96" width="303" height="6.08"/><rect class="cls-60" x="740" y="667.72" width="332" height="6.56"/><rect class="cls-58" x="750" y="658.84" width="317" height="9.16"/><rect class="cls-61" x="1089.84" y="648.24" width="268.24" height="4.55"/><rect class="cls-59" x="1086.25" y="652.75" width="271.83" height="5.49"/><rect class="cls-60" x="1071" y="666.08" width="297.84" height="5.92"/><rect class="cls-61" x="1079.97" y="658.06" width="284.39" height="8.27"/><rect class="cls-44" x="436.91" y="647.44" width="292.09" height="4.86"/><rect class="cls-59" x="433" y="652.25" width="296" height="5.86"/><rect class="cls-60" x="418" y="666.48" width="320" height="6.32"/><rect class="cls-44" x="427.64" y="657.92" width="305.54" height="8.83"/><rect class="cls-62" x="108.09" y="639.96" width="310.35" height="5.04"/><rect class="cls-59" x="103.94" y="644.96" width="314.5" height="6.08"/><rect class="cls-60" x="88" y="659.72" width="340" height="6.56"/><rect class="cls-63" x="98.24" y="650.84" width="324.64" height="9.16"/><rect class="cls-64" x="794" y="360" width="42" height="59"/><rect class="cls-64" x="799" y="558" width="42" height="48"/><rect class="cls-64" x="970" y="558" width="42" height="48"/><rect class="cls-64" x="873" y="558" width="61" height="84"/><rect class="cls-65" x="811" y="360" width="9" height="59"/><rect class="cls-65" x="794" y="385" width="42" height="9"/><rect class="cls-64" x="884" y="360" width="42" height="59"/><rect class="cls-65" x="901" y="360" width="9" height="59"/><rect class="cls-65" x="882" y="450" width="7" height="32"/><rect class="cls-65" x="923" y="450" width="7" height="32"/><rect class="cls-65" x="967" y="450" width="7" height="32"/><rect class="cls-65" x="1012" y="450" width="7" height="32"/><rect class="cls-65" x="1052" y="450" width="7" height="32"/><rect class="cls-65" x="839" y="450" width="7" height="32"/><rect class="cls-65" x="794" y="450" width="7" height="32"/><rect class="cls-65" x="756" y="450" width="7" height="32"/><rect class="cls-65" x="884" y="385" width="42" height="9"/><rect class="cls-65" x="752" y="441" width="312" height="9"/><rect class="cls-65" x="752" y="482" width="312" height="9"/><rect class="cls-64" x="974" y="360" width="42" height="59"/><rect class="cls-65" x="991" y="360" width="9" height="59"/><rect class="cls-65" x="974" y="385" width="42" height="9"/><circle class="cls-66" cx="910" cy="289" r="32"/><circle class="cls-67" cx="910" cy="289" r="26"/><circle class="cls-66" cx="910" cy="289" r="19"/><rect class="cls-44" x="761" y="491" width="299" height="67"/><rect class="cls-68" x="1089" y="401" width="268" height="247"/><rect class="cls-69" x="1091" y="482" width="266" height="46"/><rect class="cls-70" x="1120" y="424" width="41" height="49"/><rect class="cls-71" x="1137.6" y="424" width="5.4" height="49"/><rect class="cls-71" x="1120" y="447" width="41" height="5"/><rect class="cls-70" x="1203" y="424" width="41" height="49"/><rect class="cls-71" x="1220.6" y="424" width="5.4" height="49"/><rect class="cls-71" x="1203" y="447" width="41" height="5"/><rect class="cls-70" x="1284" y="424" width="41" height="49"/><rect class="cls-71" x="1301.6" y="424" width="5.4" height="49"/><rect class="cls-71" x="1284" y="447" width="41" height="5"/><rect class="cls-70" x="1264" y="574" width="41" height="49"/><rect class="cls-71" x="1281.6" y="574" width="5.4" height="49"/><rect class="cls-71" x="1264" y="597" width="41" height="5"/><rect class="cls-70" x="1140" y="574" width="41" height="49"/><rect class="cls-71" x="1157.6" y="574" width="5.4" height="49"/><rect class="cls-71" x="1140" y="597" width="41" height="5"/><rect class="cls-70" x="1188.78" y="582" width="69.45" height="68"/><rect class="cls-71" x="1189.03" y="581.66" width="6.94" height="68.34"/><rect class="cls-71" x="1251.03" y="581.66" width="6.94" height="68.34"/><rect class="cls-71" x="1199.33" y="490.44" width="6.37" height="29.13"/><rect class="cls-71" x="1236.65" y="490.44" width="6.37" height="29.13"/><rect class="cls-71" x="1276.71" y="490.44" width="6.37" height="29.13"/><rect class="cls-71" x="1317.67" y="490.44" width="6.37" height="29.13"/><rect class="cls-71" x="1354.08" y="490.44" width="6.37" height="29.13"/><rect class="cls-71" x="1160.19" y="490.44" width="6.37" height="29.13"/><rect class="cls-71" x="1119.23" y="490.44" width="6.37" height="29.13"/><rect class="cls-71" x="1084.64" y="490.44" width="6.37" height="29.13"/><rect class="cls-71" x="1081" y="482.24" width="284" height="8.19"/><path class="cls-72" d="M1325,582H1122V552h63.17c-.17-32,78.83-35,78.47,0H1325Z"/><rect class="cls-71" x="1081" y="519.56" width="284" height="8.19"/><rect class="cls-72" x="1135" y="360" width="175" height="41"/><rect class="cls-73" x="1381" y="363" width="227" height="307"/><rect class="cls-74" x="1406" y="396" width="41" height="49"/><rect class="cls-71" x="1423.6" y="396" width="5.4" height="49"/><rect class="cls-71" x="1406" y="420" width="41" height="5"/><rect class="cls-74" x="1538" y="396" width="41" height="49"/><rect class="cls-71" x="1555.6" y="396" width="5.4" height="49"/><rect class="cls-71" x="1538" y="420" width="41" height="5"/><rect class="cls-74" x="1554" y="548" width="41" height="78"/><rect class="cls-74" x="1461" y="566" width="66" height="101"/><rect class="cls-71" x="1571.6" y="548" width="5.4" height="78"/><rect class="cls-71" x="1554" y="586.2" width="41" height="7.96"/><rect class="cls-74" x="1395" y="547" width="41" height="78"/><rect class="cls-71" x="1412.6" y="547" width="5.4" height="78"/><rect class="cls-71" x="1395" y="585.2" width="41" height="7.96"/><path class="cls-75" d="M1527,646h-66V616h10.68c-.06-32,43.79-35,43.67,0H1527Z"/><polygon class="cls-76" points="1624 340 1616 340 1616 344 1371 344 1371 340 1367 340 1367 335 1624 335 1624 340"/><rect class="cls-77" x="1377" y="344" width="236" height="19"/><rect class="cls-78" x="1411" y="289" width="172" height="45"/><rect class="cls-79" x="148" y="517" width="224" height="42"/></g><g id="Tunna"><ellipse class="cls-80" cx="1800.7" cy="793.99" rx="116.5" ry="33.66"/><ellipse class="cls-81" cx="1801.7" cy="805.99" rx="112.5" ry="32.5"/><path class="cls-82" d="M1910.2,1067.49c0,46-220,55-220,0-46.83-106.66-46.11-200.13,0-281,0,58,220,55,220,0Q1982.77,920.58,1910.2,1067.49Z"/><path class="cls-80" d="M1922.2,810.49c-33,52-215,51-244,0-7-6,5-27,12-24,3,46,215,52,220,0C1921.2,781.49,1934.2,804.49,1922.2,810.49Z"/><path class="cls-80" d="M1945.2,914.49c-96,49.21-192.3,48.83-289,0-7.71-8.61-7.38-16.93,0-25,99.39,44,196.23,51.32,289,0C1950.89,898.37,1952.62,906.86,1945.2,914.49Z"/><path class="cls-80" d="M1940.73,1009.71c-92.34,47.35-185,47-278.08,0-7.43-8.28-7.1-16.29,0-24.05,95.63,42.28,188.82,49.38,278.08,0C1946.2,994.2,1947.87,1002.38,1940.73,1009.71Z"/><path class="cls-80" d="M1911.39,1082.63c-74,39.7-148.26,39.39-222.83,0-5.94-7-5.69-13.66,0-20.17,76.64,35.45,151.31,41.4,222.83,0C1915.78,1069.62,1917.11,1076.49,1911.39,1082.63Z"/></g><polygon class="cls-83" points="910 272.19 913.77 283.81 925.99 283.81 916.11 290.98 919.88 302.6 910 295.42 900.12 302.6 903.89 290.98 894.01 283.81 906.23 283.81 910 272.19"/></svg>