<svg id="Lager_1" data-name="Lager 1" xmlns="http://www.w3.org/2000/svg" viewBox="0 0 1661 517.66"><defs><style>.cls-1{fill:#af3804;}.cls-2{fill:#e25007;}.cls-3{font-size:182.95px;font-family:ComicSansMS-Bold, Comic Sans MS;font-weight:700;}</style></defs><title>sign</title><path class="cls-1" d="M401.65,773.73c-80.23,0-162.44-2.43-244.34-7.21l-11.66-21.37,52-37-14.12-30.26,4-46.66,49-40,7.05-94.65-85.6-17.92,41.52-48.43L214.54,381l-16.8-33.6,54.62-10.92,17-40.9c27.46,3.34,45.39,4.76,59.91,4.76,21.47,0,36.25-3.15,60.75-8.36,18.3-3.89,41.08-8.74,76-14.45,176.43-4.92,344.22-7.42,498.65-7.42s301.23,2.5,436,7.43c33.09,4.61,68.58,6.86,108.43,6.86,71.43,0,145.51-7.19,223.94-14.8,17.3-1.68,35.17-3.41,53-5.06h0c1.53,0,3.65,3.33,5.52,6.26,2.07,3.26,4,6.34,5.93,6.71v39.81L1768.42,370l29.08,43.12V552.81L1762.33,593l34.93,37.38L1744.13,671l61.37,39.23v54.26c-83.11,5.5-166,8.28-246.51,8.28-70,0-138.31-2.12-203.16-6.31-115.35-6.74-233.93-10.16-352.46-10.16S763,759.76,641.28,766.5C562.6,771.3,482,773.73,401.65,773.73Z" transform="translate(-145 -256.57)"/><path d="M1786.12,265c1.18,0,3.5,3.64,5,6,2.07,3.26,3.9,6.14,5.85,6.82v39.3l-28.88,52.37-.29.53.34.51L1797,413.31V552.62l-34.75,39.72-.6.68.62.66,34.25,36.65-52.13,39.88-1.13.86,1.2.77L1805,710.55v53.51c-82.94,5.48-165.71,8.25-246,8.25-70,0-138.29-2.12-203.13-6.31-115.36-6.74-233.95-10.16-352.48-10.16S763,759.26,641.24,766c-78.66,4.8-159.28,7.23-239.59,7.23-80.13,0-162.24-2.42-244-7.2L146.3,745.3l51.28-36.49.68-.48-.35-.75L184,677.82,188,631.51l48.67-39.74.34-.27,0-.43,7-94,.06-.87-.86-.18-84.34-17.65,40.9-47.72.14-.16.06-.2,15-49,.11-.38-.18-.36-16.41-32.83L252.2,337l.52-.1.2-.5,16.71-40.3c27.28,3.31,45.13,4.72,59.6,4.72,21.52,0,36.33-3.15,60.86-8.37,18.28-3.89,41-8.73,76-14.43,176.46-4.93,344.22-7.43,498.63-7.43s301.18,2.5,436,7.43c33.15,4.61,68.64,6.86,108.5,6.86,71.46,0,145.55-7.19,224-14.8,17.29-1.68,35.17-3.42,53-5.06h0m0-1H1786c-96.7,8.95-189.35,19.86-276.86,19.86-37.09,0-73.26-2-108.42-6.86-138.86-5.08-284.52-7.43-436.05-7.43-160.06,0-326.68,2.63-498.73,7.43-83.23,13.58-99.77,22.8-136.71,22.8-14.88,0-33.06-1.49-60.23-4.8l-17,41-55,11,17,34-15,49-42,49,86,18-7,94-49,40-4,47,14,30-52,37,12,22q124,7.26,244.65,7.23,121.53,0,239.65-7.23,182.6-10.11,362.08-10.16,177.77,0,352.42,10.16c67.19,4.34,135.39,6.31,203.19,6.31,83.85,0,167.08-3,247-8.31V710l-61-39,53-40.55L1763,593l35-40V413l-29-43,29-52.59V277h-.13c-3.46,0-8.29-13-11.75-13Z" transform="translate(-145 -256.57)"/><path class="cls-2" d="M1566.29,751.73c-73.34,0-148.19-2.43-222.46-7.23-115.35-6.74-233.94-10.16-352.46-10.16S751,737.76,629.28,744.5c-78.68,4.8-159.3,7.23-239.63,7.23-80.17,0-162.31-2.42-244.15-7.2V710.34L171.59,665l-25.88-38.82L224.93,578,145.5,524.73V466.19l42.22-49.26L145.5,383.76V338l54.39-33-53.12-40.33c46.93,5.68,102.76,11.41,162.54,11.41A888.86,888.86,0,0,0,454,264.49c176.42-4.92,344.21-7.42,498.64-7.42s301.24,2.5,436.05,7.43C1444,272.21,1503,276,1569.07,276c65.55,0,136.35-3.73,216.43-11.4v39.72L1757.41,354l28.09,41.84V539.81L1750.33,580l34.94,37.39-55.12,44.65,55.35,35.38v47.1C1713.22,749.31,1639.47,751.73,1566.29,751.73Z" transform="translate(-145 -256.57)"/><path d="M952.67,257.57c154.5,0,301.18,2.5,436,7.43,55.36,7.71,114.38,11.45,180.43,11.45,65.41,0,136.06-3.71,215.93-11.35v39l-27.87,49.37-.3.54.34.51L1785,396V539.62l-34.75,39.72-.6.68.62.66,34.27,36.67-54.17,43.87-1.08.88,1.17.74L1785,697.71v46.35c-72.12,4.76-145.69,7.17-218.71,7.17-73.33,0-148.17-2.43-222.43-7.23-115.36-6.74-233.95-10.16-352.48-10.16S751,737.26,629.24,744c-78.66,4.8-159.28,7.23-239.59,7.23-80,0-162-2.41-243.65-7.17V710.47l25.87-45,.31-.54-.35-.51-25.42-38.14,78.11-47.46,1.34-.81-1.3-.87L146,524.47v-58.1l41.76-48.72.68-.79-.82-.65L146,383.51V338.3l53.52-32.44,1.26-.77-1.18-.89-51-38.76c46.55,5.61,101.73,11.19,160.76,11.19A889.19,889.19,0,0,0,454,265c176.46-4.93,344.22-7.43,498.63-7.43m0-1c-160.06,0-326.68,2.63-498.73,7.43a890.25,890.25,0,0,1-144.63,11.63c-57.57,0-111.39-5.19-164.31-11.63l54,41-54,32.74V384l42,33-42,49v59l79,53-79,48,26,39-26,45.2V745q124,7.26,244.65,7.23,121.53,0,239.65-7.23,182.6-10.11,362.08-10.16,177.77,0,352.42,10.16,112.34,7.26,222.49,7.23,110.91,0,219.71-7.23V697.16L1731,662l55-44.55L1751,580l35-40V395.71L1758,354l28-49.59V264c-74.55,7.16-147.18,11.45-216.93,11.45-62.67,0-123-3.47-180.35-11.45-138.86-5.08-284.52-7.43-436.05-7.43Z" transform="translate(-145 -256.57)"/><text class="cls-3" transform="translate(145 302.31) scale(0.54 1)">Javascript Wheel of fortune</text></svg>