<svg id="Lager_2" data-name="Lager 2" xmlns="http://www.w3.org/2000/svg" viewBox="0 0 904 906"><defs><style>.cls-1{fill:#fc3838;stroke:#f28b44;}.cls-1,.cls-2,.cls-3,.cls-4,.cls-5,.cls-6{stroke-miterlimit:10;}.cls-1,.cls-2,.cls-3,.cls-4,.cls-5{stroke-width:26px;}.cls-2{fill:#f74175;stroke:#50bc5a;}.cls-3{fill:#f28b44;stroke:#fc3838;}.cls-4{fill:#50bc5a;stroke:#f74175;}.cls-5{fill:#fc0000;stroke:#ff0;}.cls-6{stroke:#ffec00;stroke-width:8px;}</style></defs><title>wheelOfFortune</title><path class="cls-1" d="M933.32,525.91,527,529.26c1.86-124.55,36.53-201.35,119-286.54Z" transform="translate(-508 -89)"/><path class="cls-2" d="M936.05,547.29,644.47,838.83c-86.1-90-116.91-169.25-118-287.78Z" transform="translate(-508 -89)"/><path class="cls-3" d="M950.08,564.09l.3,410.56c-124.55-2.25-206.24-38.08-291.16-120.78Z" transform="translate(-508 -89)"/><path class="cls-4" d="M949.46,511.52,661,226.81C750.76,140.41,830.71,108.47,949.24,107Z" transform="translate(-508 -89)"/><path class="cls-4" d="M963.5,540.24,1266,849.35c-89.78,86.35-175.59,124.17-294.12,125.57Z" transform="translate(-508 -89)"/><path class="cls-3" d="M971,511.67V107.41c124.55,2.1,201.27,34.45,286.3,117.05Z" transform="translate(-508 -89)"/><path class="cls-2" d="M986.1,526.75l286.55-287.08c86.59,89.56,119.65,162.69,121.37,281.22Z" transform="translate(-508 -89)"/><path class="cls-1" d="M1002.17,548.53l393-6.48c-2.39,124.55-30.8,207-113.61,291.85Z" transform="translate(-508 -89)"/><circle class="cls-5" cx="459.67" cy="440.26" r="66.19"/><circle class="cls-6" cx="141" cy="146" r="11"/><circle class="cls-6" cx="15" cy="451" r="11"/><circle class="cls-6" cx="139" cy="764" r="11"/><circle class="cls-6" cx="452" cy="891" r="11"/><circle class="cls-6" cx="770" cy="757" r="11"/><circle class="cls-6" cx="889" cy="440" r="11"/><circle class="cls-6" cx="759" cy="139" r="11"/><circle class="cls-6" cx="451" cy="15" r="11"/></svg>